<svg width="91" height="95" viewBox="0 0 91 95" fill="none" xmlns="http://www.w3.org/2000/svg">
<path d="M16.7845 80.753L10.3975 5.9375H80.604L74.2084 80.7411L45.4581 89.0625L16.7845 80.753Z" fill="#1572B6"/>
<path d="M45.5 82.7079L68.7334 75.9837L74.1991 12.0605H45.5V82.7079Z" fill="#33A9DC"/>
<path d="M45.5 39.1682H57.1309L57.9329 29.7721H45.5V20.5957H67.5391L67.3286 23.0568L65.1702 48.3446H45.5V39.1682Z" fill="white"/>
<path d="M45.5546 62.9943L45.5148 63.0062L35.7266 60.2452L35.101 52.9272H26.2769L27.5082 67.3346L45.512 72.5537L45.5546 72.5418V62.9943Z" fill="#EBEBEB"/>
<path d="M56.3825 47.9407L55.3246 60.2283L45.5222 62.9893V72.5368L63.5402 67.3236L63.6739 65.774L65.201 47.9407H56.3825Z" fill="white"/>
<path d="M45.5301 20.5957V29.7721H24.2987L24.1224 27.7088L23.7214 23.0568L23.511 20.5957H45.5301Z" fill="#EBEBEB"/>
<path d="M45.4978 39.1504V48.3268H35.8319L35.6556 46.2635L35.2574 41.6115L35.047 39.1504H45.4978Z" fill="#EBEBEB"/>
</svg>
