<svg width="311" height="89" viewBox="0 0 311 89" fill="none" xmlns="http://www.w3.org/2000/svg">
<g clip-path="url(#clip0)">
<path d="M2.18981 69.067V35.0314H45.357V33.0405H2.18981V1.99026H48.0862V0H0.168091V71.0572H48.4903V69.067H2.19042H2.18981ZM87.412 19.9037L69.5187 43.0921L52.0289 19.9043H49.4005L68.3052 44.5854L47.5802 71.0566H50.0066L69.5175 46.0769L89.1298 71.0566H91.6569L70.8318 44.5842L89.8372 19.9031H87.4114L87.412 19.9037ZM97.7233 88.5729V56.727H97.9253C99.1389 61.3712 101.531 65.1032 105.103 67.9231C108.675 70.7425 113.224 72.1527 118.75 72.1527C122.322 72.1527 125.49 71.4395 128.254 70.0131C131.017 68.5867 133.325 66.6461 135.178 64.1911C137.032 61.7361 138.447 58.8834 139.425 55.6322C140.401 52.3816 140.89 48.9643 140.89 45.3822C140.89 41.5337 140.384 37.9839 139.374 34.7333C138.363 31.4821 136.897 28.6622 134.976 26.2741C133.055 23.8854 130.73 22.0272 128.001 20.7012C125.271 19.3739 122.188 18.7103 118.75 18.7103C116.122 18.7103 113.679 19.092 111.421 19.8548C109.164 20.6181 107.159 21.6957 105.407 23.0892C103.644 24.4935 102.11 26.1547 100.857 28.0153C99.5769 29.9064 98.5994 31.9797 97.9253 34.2357H97.7233V19.9037H95.7016V88.5729H97.7233V88.5729ZM118.75 70.261C112.416 70.261 107.327 68.1214 103.486 63.8423C99.6443 59.5631 97.7233 53.409 97.7233 45.381C97.7233 42.0635 98.1953 38.9121 99.1389 35.9267C100.082 32.9413 101.447 30.3203 103.233 28.0649C105.019 25.8088 107.226 24.0175 109.854 22.6908C112.483 21.3636 115.449 20.7 118.75 20.7C122.12 20.7 125.069 21.3636 127.596 22.6908C130.124 24.0175 132.213 25.8255 133.864 28.1144C135.515 30.4034 136.762 33.0244 137.605 35.9763C138.447 38.9288 138.868 42.0635 138.868 45.381C138.868 48.367 138.481 51.3363 137.706 54.2882C136.931 57.2407 135.734 59.8946 134.117 62.2504C132.5 64.605 130.428 66.529 127.9 68.0223C125.372 69.515 122.322 70.261 118.75 70.261V70.261ZM152.011 71.0572V42.097C152.011 39.3105 152.415 36.5898 153.224 33.9365C154.032 31.2826 155.279 28.9435 156.964 26.9204C158.649 24.8967 160.789 23.3043 163.384 22.1431C165.978 20.9819 169.062 20.5011 172.634 20.7V18.7097C169.533 18.644 166.821 18.9749 164.496 19.7048C162.17 20.4348 160.165 21.4299 158.48 22.6908C156.795 23.9512 155.448 25.4271 154.437 27.1193C153.427 28.8088 152.677 30.6366 152.213 32.5429H152.011V19.9037H149.989V71.0578H152.011V71.0572ZM175.161 45.8786H218.631C218.766 42.3622 218.412 38.979 217.57 35.7278C216.727 32.4766 215.379 29.5904 213.526 27.0697C211.672 24.5485 209.28 22.5248 206.348 20.9986C203.416 19.4725 199.929 18.7097 195.885 18.7097C192.987 18.7097 190.156 19.307 187.393 20.5017C184.63 21.6957 182.203 23.4369 180.114 25.7258C178.025 28.0147 176.34 30.8179 175.06 34.136C173.78 37.4529 173.139 41.2345 173.139 45.4808C173.139 49.2624 173.577 52.7955 174.453 56.0796C175.329 59.3636 176.677 62.217 178.497 64.6385C180.317 67.06 182.659 68.9344 185.523 70.261C188.387 71.5883 191.841 72.2184 195.885 72.1521C201.816 72.1521 206.803 70.5095 210.847 67.2261C214.891 63.9414 217.283 59.314 218.025 53.3427H216.003C215.127 58.9825 212.885 63.2121 209.28 66.0314C205.674 68.8514 201.142 70.261 195.683 70.261C191.976 70.261 188.842 69.6309 186.281 68.3705C183.72 67.1102 181.631 65.3845 180.013 63.1954C178.396 61.0056 177.2 58.4348 176.425 55.4822C175.649 52.5303 175.228 49.3287 175.161 45.8786ZM216.609 43.8883H175.161C175.363 40.3056 176.037 37.0879 177.183 34.2351C178.329 31.3818 179.828 28.9435 181.682 26.9204C183.535 24.8967 185.692 23.3544 188.152 22.2924C190.611 21.231 193.257 20.7 196.087 20.7C199.457 20.7 202.422 21.314 204.984 22.5415C207.544 23.769 209.684 25.4444 211.403 27.5673C213.121 29.6902 214.419 32.1619 215.295 34.9812C216.171 37.8011 216.609 40.7704 216.609 43.8883ZM260.585 35.0314H262.607C262.607 29.3252 260.922 25.1786 257.553 22.5911C254.182 20.0035 249.599 18.7097 243.803 18.7097C240.568 18.7097 237.839 19.1081 235.615 19.9043C233.391 20.7 231.571 21.7285 230.156 22.9889C228.741 24.2492 227.73 25.6428 227.123 27.1689C226.516 28.695 226.213 30.1549 226.213 31.5478C226.213 34.3343 226.718 36.5569 227.73 38.2156C228.741 39.8744 230.324 41.1682 232.481 42.097C233.964 42.76 235.648 43.3573 237.536 43.8889C239.423 44.4194 241.613 44.9832 244.107 45.5799C246.331 46.1116 248.521 46.642 250.678 47.1724C252.834 47.7034 254.738 48.4166 256.389 49.312C258.041 50.2079 259.389 51.3524 260.433 52.7459C261.478 54.1389 262 55.9637 262 58.2191C262 60.4089 261.478 62.2665 260.433 63.7921C259.397 65.3103 258.034 66.5848 256.44 67.5247C254.823 68.4864 253.019 69.1829 251.032 69.6141C249.043 70.0454 247.106 70.261 245.219 70.261C239.086 70.261 234.385 68.9177 231.116 66.2309C227.847 63.5436 226.213 59.314 226.213 53.5416H224.191C224.191 59.9776 225.96 64.6881 229.498 67.674C233.037 70.6594 238.277 72.1521 245.219 72.1521C247.443 72.1521 249.683 71.903 251.942 71.4055C254.199 70.9079 256.221 70.0956 258.007 68.9672C259.778 67.8549 261.265 66.3569 262.354 64.5889C263.466 62.797 264.022 60.6078 264.022 58.0202C264.022 55.5653 263.533 53.575 262.556 52.0489C261.579 50.5233 260.299 49.2624 258.714 48.2673C257.131 47.2721 255.345 46.4926 253.357 45.9288C251.357 45.3616 249.352 44.814 247.341 44.2862C244.867 43.6471 242.39 43.0169 239.911 42.3957C237.789 41.8646 235.817 41.2345 233.998 40.5046C232.245 39.7746 230.847 38.7299 229.802 37.3698C228.757 36.0098 228.235 34.0691 228.235 31.5478C228.235 31.0837 228.37 30.254 228.639 29.06C228.909 27.8654 229.549 26.6546 230.56 25.4271C231.571 24.2002 233.121 23.1054 235.21 22.1431C237.3 21.1814 240.164 20.7 243.803 20.7C246.297 20.7 248.571 20.9658 250.627 21.4962C252.683 22.0272 254.452 22.873 255.934 24.0342C257.417 25.1954 258.563 26.6713 259.372 28.4627C260.18 30.2546 260.585 32.4438 260.585 35.0314V35.0314ZM307.391 35.0314H309.413C309.413 29.3252 307.728 25.1786 304.358 22.5911C300.989 20.0035 296.406 18.7097 290.609 18.7097C287.375 18.7097 284.645 19.1081 282.421 19.9043C280.197 20.7 278.377 21.7285 276.962 22.9889C275.547 24.2492 274.536 25.6428 273.929 27.1689C273.322 28.695 273.019 30.1549 273.019 31.5478C273.019 34.3343 273.525 36.5569 274.536 38.2156C275.547 39.8744 277.131 41.1682 279.287 42.097C280.77 42.76 282.454 43.3573 284.341 43.8889C286.228 44.4194 288.419 44.9832 290.913 45.5799C293.137 46.1116 295.327 46.642 297.484 47.1724C299.641 47.7034 301.544 48.4166 303.196 49.312C304.847 50.2079 306.195 51.3524 307.239 52.7459C308.284 54.1389 308.807 55.9637 308.807 58.2191C308.807 60.4089 308.284 62.2665 307.239 63.7921C306.204 65.3102 304.84 66.5847 303.247 67.5247C301.629 68.4864 299.826 69.1829 297.838 69.6141C295.85 70.0454 293.912 70.261 292.025 70.261C285.892 70.261 281.191 68.9177 277.923 66.2309C274.653 63.5436 273.019 59.314 273.019 53.5416H270.998C270.998 59.9776 272.766 64.6881 276.305 67.674C279.843 70.6594 285.083 72.1521 292.025 72.1521C294.249 72.1521 296.49 71.903 298.748 71.4055C301.005 70.9079 303.027 70.0956 304.814 68.9672C306.584 67.8549 308.071 66.3569 309.16 64.5889C310.273 62.797 310.828 60.6078 310.828 58.0202C310.828 55.5653 310.34 53.575 309.362 52.0489C308.386 50.5233 307.105 49.2624 305.521 48.2673C303.937 47.2721 302.151 46.4926 300.163 45.9288C298.164 45.3616 296.159 44.814 294.148 44.2862C291.673 43.6471 289.197 43.0169 286.718 42.3957C284.595 41.8646 282.623 41.2345 280.803 40.5046C279.051 39.7746 277.653 38.7299 276.608 37.3698C275.564 36.0098 275.041 34.0691 275.041 31.5478C275.041 31.0837 275.176 30.254 275.446 29.06C275.715 27.8654 276.356 26.6546 277.366 25.4271C278.377 24.2002 279.927 23.1054 282.016 22.1431C284.106 21.1814 286.97 20.7 290.61 20.7C293.104 20.7 295.378 20.9658 297.434 21.4962C299.489 22.0272 301.258 22.873 302.741 24.0342C304.224 25.1954 305.369 26.6713 306.178 28.4627C306.987 30.2546 307.392 32.4438 307.392 35.0314H307.391Z" fill="#626262" stroke="#626262" stroke-width="5"/>
</g>
<defs>
<clipPath id="clip0">
<rect width="311" height="89" fill="white"/>
</clipPath>
</defs>
</svg>
