<svg width="91" height="89" viewBox="0 0 91 89" fill="none" xmlns="http://www.w3.org/2000/svg">
<path d="M16.496 68.4172L16.9794 67.7581L39.7863 25.4441L39.8346 24.9963L29.782 6.52885C29.5979 6.19114 29.31 5.91858 28.9589 5.74972C28.6077 5.58087 28.2112 5.52426 27.8254 5.58792C27.4395 5.65158 27.0839 5.83228 26.8089 6.10446C26.5338 6.37663 26.3533 6.7265 26.2927 7.10457L16.496 68.4172Z" fill="#FFC24A"/>
<path d="M16.7792 67.9186L17.1432 67.2233L39.714 25.3488L29.687 6.80901C29.5216 6.48659 29.2539 6.22524 28.9239 6.06413C28.5939 5.90302 28.2194 5.85082 27.8566 5.91535C27.4937 5.97987 27.162 6.15765 26.9111 6.42205C26.6602 6.68645 26.5037 7.02323 26.465 7.38195L16.7792 67.9186Z" fill="#FFA712"/>
<path d="M47.1592 38.9605L54.644 31.4511L47.1564 17.4864C46.9916 17.1859 46.7465 16.9347 46.4473 16.7596C46.1481 16.5844 45.806 16.4919 45.4573 16.4919C45.1086 16.4919 44.7664 16.5844 44.4672 16.7596C44.168 16.9347 43.9229 17.1859 43.7581 17.4864L39.757 24.9457V25.5826L47.1592 38.9605Z" fill="#F4BD62"/>
<path d="M47.0294 38.6681L54.3066 31.3813L47.0294 17.8088C46.9103 17.515 46.7068 17.2612 46.4436 17.0779C46.1803 16.8947 45.8684 16.7898 45.5456 16.776C45.2228 16.7622 44.9027 16.84 44.6241 17C44.3455 17.1601 44.1201 17.3956 43.9752 17.678L39.9542 25.2681L39.8347 25.6547L47.0294 38.6681Z" fill="#FFA50E"/>
<path d="M16.5015 68.4135L16.7204 68.1966L17.5138 67.8823L46.6907 39.4524L47.0604 38.4678L39.7832 24.9009L16.5015 68.4135Z" fill="#F6820C"/>
<path d="M48.0957 82.7489L74.5085 68.3448L66.9612 22.9242C66.9071 22.604 66.7638 22.3046 66.5471 22.0588C66.3304 21.813 66.0487 21.6304 65.7328 21.531C65.4169 21.4315 65.0792 21.4192 64.7566 21.4952C64.434 21.5712 64.139 21.7327 63.9041 21.9619L16.496 68.4088L42.7523 82.7461C43.5686 83.1916 44.4878 83.4255 45.4226 83.4255C46.3574 83.4255 47.2766 83.1916 48.0929 82.7461" fill="#FDE068"/>
<path d="M74.2656 68.2257L66.7808 23.1472C66.7676 22.8409 66.6618 22.5454 66.4768 22.298C66.2918 22.0505 66.0358 21.8624 65.7414 21.7573C65.447 21.6521 65.1273 21.6348 64.8229 21.7075C64.5184 21.7801 64.2428 21.9395 64.0309 22.1654L16.7792 68.323L42.7455 82.5074C43.5553 82.9492 44.4671 83.1811 45.3944 83.1811C46.3217 83.1811 47.2336 82.9492 48.0434 82.5074L74.2656 68.2257Z" fill="#FCCA3F"/>
<path d="M48.0957 82.3264C47.2794 82.7719 46.3602 83.0057 45.4254 83.0057C44.4907 83.0057 43.5714 82.7719 42.7552 82.3264L16.7121 68.2032L16.496 68.4201L42.7523 82.7575C43.5686 83.203 44.4878 83.4368 45.4226 83.4368C46.3574 83.4368 47.2766 83.203 48.0929 82.7575L74.5085 68.3562L74.4431 67.9668L48.0957 82.3264Z" fill="#EEAB37"/>
</svg>
