<svg width="374" height="91" viewBox="0 0 374 91" fill="none" xmlns="http://www.w3.org/2000/svg">
<g clip-path="url(#clip0)">
<path d="M137.655 0.000629137C150.653 -0.0558789 163.983 3.692 174.086 12.1367C179.263 16.3476 183.445 21.6307 186.996 27.2559C193.386 16.876 202.72 8.05633 214.231 3.80502C228.257 -1.48619 244.111 -1.12073 258.113 4.06554C270.343 8.55243 281.037 16.3718 290.735 24.9713C298.322 31.7017 305.343 39.0661 313.157 45.5447C317.274 48.9014 321.698 52.0468 326.762 53.786C333.492 56.0948 341.451 53.9167 346.264 48.7062C350.721 43.8296 350.446 35.4004 345.536 30.9465C342.414 28.2393 337.075 28.7838 334.866 32.3922C332.934 35.2543 334.018 38.8224 335.531 41.5942C331.51 38.6441 327.482 34.5307 327.498 29.1661C326.665 22.9642 331.243 17.4932 336.727 15.3231C347.429 11.0226 360.848 14.7302 367.603 24.1993C374.098 33.0351 374.615 44.6501 373.483 55.176C372.116 65.1742 366.551 74.5061 358.3 80.2935C346.718 88.6009 332.036 91.1768 318.067 90.9984C304.639 90.6322 291.349 87.5845 278.909 82.5442C258.105 74.1399 238.635 62.5242 217.151 55.8108C210.025 53.0309 202.446 51.5272 194.826 51.0634C188.759 51.023 183.008 50.7383 177.281 51.1287C170.292 51.8038 163.344 53.2422 156.801 55.8181C134.953 62.6468 115.192 74.5546 93.9915 82.9758C76.0905 89.9739 56.2571 93.2257 37.2569 89.3399C26.6282 87.1779 16.0476 82.4554 8.87316 74.0423C2.73354 66.8893 -0.210285 57.3145 0.0796434 47.9341C-0.259945 39.0822 1.67315 29.6776 7.49728 22.7844C12.9161 16.25 21.6446 12.9336 30.0248 13.6653C35.4195 13.917 40.8879 16.2823 44.2203 20.6474C46.8413 24.1017 47.0027 28.833 45.854 32.8722C44.4547 36.5056 41.5671 39.3427 38.429 41.5208C40.0306 38.8055 41.0011 35.2213 39.1082 32.3842C36.7786 28.6047 31.0435 28.2231 28.0106 31.3274C24.2737 35.189 23.4886 41.4966 25.9964 46.2272C28.7139 51.1859 34.3364 54.0143 39.7793 54.5911C48.0142 55.3066 55.1565 50.1776 61.199 45.2034C73.7039 34.384 84.9629 22.005 98.8356 12.8522C110.274 5.14653 123.749 -0.0639515 137.654 0.00136301L137.655 0.000629137Z" fill="#423426"/>
</g>
<defs>
<clipPath id="clip0">
<rect width="374" height="91" fill="white"/>
</clipPath>
</defs>
</svg>
