<svg width="91" height="91" viewBox="0 0 91 91" fill="none" xmlns="http://www.w3.org/2000/svg">
<path d="M16.7818 77.3528L10.3919 5.6875H80.6041L74.2057 77.3415L45.4553 85.3125L16.7818 77.3528Z" fill="#E44F26"/>
<path d="M45.5 79.2254L68.7334 72.7844L74.1991 11.5527H45.5V79.2254Z" fill="#F1662A"/>
<path d="M45.5 38.1189H33.8691L33.0671 29.1184H45.5V20.3284H23.4609L23.6714 22.6887L25.8298 46.9089H45.5V38.1189Z" fill="#EBEBEB"/>
<path d="M45.4992 60.9611L45.4593 60.9725L35.6712 58.3306L35.0455 51.3208H26.2214L27.4527 65.1187L45.4593 70.118L45.4992 70.1066V60.9611Z" fill="#EBEBEB"/>
<path d="M45.4667 38.124V46.9141H56.29L55.2719 58.3147L45.4667 60.9593V70.1049L63.4875 65.1084L63.6183 63.6239L65.6829 40.4843L65.899 38.124H45.4667Z" fill="white"/>
<path d="M45.4667 20.3284V29.1184H66.6981L66.8744 27.1448L67.2754 22.6887L67.4858 20.3284H45.4667Z" fill="white"/>
</svg>
