<svg width="95" height="89" viewBox="0 0 95 89" fill="none" xmlns="http://www.w3.org/2000/svg">
<path d="M0 0H95V89H0V0Z" fill="#F7DF1E"/>
<path d="M24.9796 74.3647L32.2493 70.2429C33.6521 72.5725 34.9279 74.5438 37.9883 74.5438C40.9218 74.5438 42.7717 73.4688 42.7717 69.2872V40.8496H51.6991V69.4054C51.6991 78.0679 46.2789 82.0111 38.3709 82.0111C31.2292 82.0111 27.0837 78.546 24.9792 74.364" fill="black"/>
<path d="M56.5458 73.4688L63.8148 69.526C65.7285 72.4536 68.2156 74.6042 72.6153 74.6042C76.3147 74.6042 78.6734 72.8715 78.6734 70.4817C78.6734 67.6143 76.2501 66.5984 72.1688 64.9262L69.9374 64.0292C63.4964 61.4611 59.224 58.2349 59.224 51.4243C59.224 45.1512 64.3254 40.3716 72.2969 40.3716C77.9724 40.3716 82.0537 42.2239 84.9868 47.0629L78.0354 51.2452C76.5047 48.6764 74.8474 47.6609 72.2965 47.6609C69.6818 47.6609 68.0237 49.2142 68.0237 51.2452C68.0237 53.7543 69.6818 54.7705 73.5077 56.3238L75.7395 57.2197C83.3284 60.2669 87.6008 63.3732 87.6008 70.3625C87.6008 77.8906 81.2877 82.0124 72.8064 82.0124C64.5165 82.0124 59.1598 78.3085 56.5454 73.4691" fill="black"/>
</svg>
