<svg width="89" height="91" viewBox="0 0 89 91" fill="none" xmlns="http://www.w3.org/2000/svg">
<path d="M75.3424 44.8824C75.3424 42.9169 74.5787 41.0319 73.2195 39.6421C71.8602 38.2523 70.0167 37.4716 68.0944 37.4716C67.8399 37.4713 67.5855 37.4846 67.3324 37.5114L77.2892 7.48706H34.9781L44.921 37.4858C44.7764 37.4858 44.629 37.4716 44.4816 37.4716C42.7508 37.4695 41.0764 38.1009 39.7613 39.2514C38.4462 40.4019 37.5771 41.9957 37.3113 43.7444C37.0456 45.4931 37.4006 47.2813 38.3122 48.7857C39.2238 50.29 40.6319 51.4111 42.2816 51.9463C40.7399 54.6605 38.8202 57.131 36.5829 59.2803C33.6705 62.1269 30.2105 64.3224 26.423 65.7271C24.3009 64.6988 22.6412 62.8831 21.7811 60.6488C20.921 58.4146 20.925 55.9294 21.7922 53.698C22.0063 53.1861 22.2233 52.6686 22.4291 52.151C24.0451 51.7619 25.4816 50.8174 26.4985 49.4755C27.5154 48.1336 28.0511 46.4756 28.0161 44.7784C27.981 43.0812 27.3774 41.4477 26.3061 40.1508C25.2347 38.854 23.7606 37.9724 22.1299 37.6533C20.4993 37.3342 18.8109 37.5969 17.3469 38.3976C15.8829 39.1984 14.7321 40.4885 14.0866 42.0525C13.4412 43.6166 13.3402 45.3597 13.8006 46.9907C14.261 48.6217 15.255 50.0417 16.6163 51.0135C14.3027 55.3027 12.537 59.8778 11.3625 64.6265C10.3779 70.6979 11.3625 77.139 16.4939 80.7819C28.4533 89.2591 41.4389 75.5266 55.1282 72.0772C60.09 70.8259 65.5357 71.0278 69.905 68.44C71.4836 67.5207 72.8449 66.2574 73.8923 64.7398C74.9396 63.2221 75.6474 61.4873 75.9654 59.6585C76.2561 57.9159 76.2013 56.1313 75.8043 54.4107C75.4072 52.6902 74.6761 51.0688 73.6541 49.6428C74.7445 48.3105 75.3412 46.6281 75.3396 44.8909L75.3424 44.8824ZM51.7323 44.9222V44.8966C51.7344 43.6213 51.4138 42.3671 50.8017 41.2559C50.1896 40.1447 49.3068 39.2143 48.2391 38.555L56.149 22.1722L64.0755 38.7057C63.0811 39.3814 62.2658 40.2983 61.7024 41.3746C61.1389 42.4509 60.8449 43.6531 60.8465 44.8738V45.0359L51.7323 44.9222Z" fill="#C63D14"/>
<path d="M77.1146 44.8914C77.1118 42.7426 76.3761 40.6621 75.0343 39.0083C73.6925 37.3545 71.8286 36.231 69.7637 35.8313L79.7595 5.6875H32.5117L42.5242 35.891C40.7762 36.2905 39.1843 37.2133 37.9514 38.5418C36.7186 39.8703 35.9008 41.5442 35.6024 43.35C35.304 45.1557 35.5385 47.0115 36.2759 48.6804C37.0134 50.3493 38.2204 51.7557 39.7429 52.7203C38.4851 54.6309 37.0224 56.3916 35.3819 57.9698C32.8426 60.454 29.8585 62.414 26.5932 63.7427C25.0608 62.8331 23.8992 61.3907 23.3202 59.6784C22.7412 57.9662 22.7835 56.0982 23.4392 54.4152L23.5505 54.1507L23.7563 53.653C25.61 52.9959 27.2037 51.7391 28.2962 50.0729C29.3887 48.4067 29.9205 46.4219 29.811 44.4191C29.7015 42.4162 28.9566 40.5044 27.6893 38.9731C26.4219 37.4418 24.7011 36.3745 22.7873 35.9328C20.8736 35.491 18.8712 35.6989 17.0833 36.525C15.2955 37.3511 13.8196 38.7503 12.8792 40.5108C11.9388 42.2714 11.585 44.2973 11.8715 46.2817C12.158 48.2662 13.0691 50.1012 14.4669 51.5088C14.1665 52.1658 13.8495 52.8312 13.5241 53.5165C11.7208 56.9066 10.4092 60.5468 9.63032 64.3228C8.33704 72.2853 10.423 78.6638 15.5015 82.2612C18.2278 84.2545 21.4977 85.3219 24.8493 85.3125C30.7789 85.3125 36.7781 82.2668 42.6493 79.2866C46.7515 77.0055 51.0794 75.1771 55.5599 73.8323C57.1647 73.4285 58.8167 73.1839 60.5661 72.9251C64.1301 72.634 67.6055 71.6413 70.8011 70.0017C72.6032 68.9492 74.157 67.5044 75.3523 65.7697C76.5476 64.0349 77.3553 62.0527 77.7181 59.9633C78.309 56.4136 77.6266 52.7651 75.7963 49.6888C76.6621 48.2444 77.1193 46.5828 77.1173 44.8886L77.1146 44.8914ZM73.574 44.8914C73.574 45.9994 73.2527 47.0826 72.6506 48.0038C72.0486 48.9251 71.1929 49.6432 70.1917 50.0672C69.1906 50.4912 68.0889 50.6021 67.0261 50.386C65.9632 50.1698 64.987 49.6363 64.2207 48.8528C63.4544 48.0693 62.9326 47.0711 62.7212 45.9844C62.5098 44.8977 62.6183 43.7712 63.033 42.7476C63.4477 41.7239 64.1499 40.849 65.051 40.2334C65.952 39.6178 67.0113 39.2892 68.095 39.2892C69.5477 39.2908 70.9404 39.8815 71.9676 40.9318C72.9948 41.982 73.5726 43.4061 73.574 44.8914ZM74.8173 9.30759L65.9896 35.9251C65.6115 36.0186 65.2399 36.1373 64.8771 36.2806L56.1578 18.0806L47.4108 36.1725C47.03 36.0376 46.6407 35.9293 46.2455 35.8483L37.4484 9.30759H74.8173ZM44.4822 39.2892C45.5658 39.2892 46.6251 39.6178 47.5262 40.2334C48.4272 40.849 49.1295 41.7239 49.5442 42.7476C49.9589 43.7712 50.0674 44.8977 49.8559 45.9844C49.6445 47.0711 49.1227 48.0693 48.3564 48.8528C47.5902 49.6363 46.6139 50.1698 45.5511 50.386C44.4882 50.6021 43.3866 50.4912 42.3854 50.0672C41.3842 49.6432 40.5285 48.9251 39.9265 48.0038C39.3244 47.0826 39.0031 45.9994 39.0031 44.8914C39.0046 43.4061 39.5823 41.982 40.6095 40.9318C41.6367 39.8815 43.0295 39.2908 44.4822 39.2892ZM20.7804 39.3433C21.8645 39.3438 22.9241 39.6733 23.825 40.2898C24.726 40.9063 25.4278 41.7823 25.8417 42.8069C26.2555 43.8314 26.3628 44.9585 26.15 46.0454C25.9371 47.1323 25.4137 48.1302 24.6459 48.9128C23.8782 49.6955 22.9006 50.2276 21.8369 50.4419C20.7732 50.6563 19.6713 50.5431 18.6705 50.1168C17.6698 49.6906 16.8152 48.9703 16.2149 48.0472C15.6147 47.1241 15.2958 46.0397 15.2985 44.9313C15.3 43.4459 15.8777 42.0219 16.9049 40.9716C17.9321 39.9213 19.3249 39.3306 20.7776 39.3291L20.7804 39.3433ZM74.2276 59.3462C73.9527 60.9138 73.3441 62.4004 72.4448 63.7007C71.5456 65.001 70.3777 66.0832 69.0239 66.8708C66.2151 68.2652 63.1736 69.1037 60.0599 69.342C58.3022 69.6008 56.486 69.8681 54.7088 70.3174C49.9777 71.7182 45.4085 73.6375 41.0807 76.0419C32.2808 80.5094 24.6713 84.3684 17.5179 79.2923C12.2697 75.5727 12.5117 68.6908 13.1236 64.92C13.8436 61.4884 15.0445 58.1811 16.6891 55.1005L17.4401 53.5108C18.1872 53.8162 18.9711 54.0171 19.7708 54.108C19.0629 56.6645 19.2607 59.3944 20.3292 61.8163C21.3978 64.2382 23.2685 66.1964 25.6114 67.3457L26.2928 67.704L27.0131 67.4424C31.0312 65.9595 34.702 63.6349 37.7905 60.6174C39.8306 58.6551 41.6226 56.4397 43.1249 54.0227C45.0471 54.3217 47.0123 53.9771 48.7273 53.0405C50.4423 52.1039 51.8151 50.6254 52.6409 48.8256C53.4667 47.0259 53.7013 45.0013 53.3096 43.0541C52.9179 41.1069 51.9209 39.3413 50.4674 38.0209L56.1356 26.3018L61.8622 38.2456C60.2328 39.8511 59.2539 42.0247 59.1199 44.3344C58.986 46.644 59.7067 48.9207 61.1391 50.7119C62.5714 52.5031 64.6104 53.6778 66.8508 54.0025C69.0913 54.3271 71.3692 53.7781 73.2319 52.4643C74.2648 54.5958 74.6104 57.0071 74.2193 59.3519L74.2276 59.3462Z" fill="white"/>
</svg>
