<svg width="295" height="295" viewBox="0 0 295 295" fill="none" xmlns="http://www.w3.org/2000/svg">
<path d="M187.141 152.081L151.187 188.034L114.312 152.081L124.453 141.94L143.813 161.299V108.752H157.641V162.221L177 142.862L187.141 152.081ZM32.2656 144.706L57.1562 169.596L82.9688 144.706V185.268H96.7969V110.596L57.1562 150.237L18.4375 110.596V185.268H32.2656V144.706Z" fill="black"/>
<path d="M265.5 184.389L236.922 155.811L208.344 184.389L199.125 174.249L227.703 145.671L198.203 116.171L208.344 106.952L236.922 136.452L266.422 106.952L276.562 116.171L247.062 145.671L275.641 174.249L265.5 184.389Z" fill="#F9AC00"/>
</svg>
