<svg width="259" height="83" viewBox="0 0 259 83" fill="none" xmlns="http://www.w3.org/2000/svg">
<path d="M169.141 46.0806L133.188 82.0337L96.3125 46.0806L106.453 35.9399L125.812 55.2993V2.75244H139.641V56.2212L159 36.8618L169.141 46.0806ZM14.2656 38.7056L39.1562 63.5962L64.9688 38.7056V79.2681H78.7969V4.59619L39.1562 44.2368L0.4375 4.59619V79.2681H14.2656V38.7056Z" fill="#626262"/>
<path d="M247.5 78.3894L218.922 49.8113L190.344 78.3894L181.125 68.2488L209.703 39.6707L180.203 10.1707L190.344 0.951904L218.922 30.4519L248.422 0.951904L258.562 10.1707L229.062 39.6707L257.641 68.2488L247.5 78.3894Z" fill="#F9AC00"/>
</svg>
