<svg width="91" height="89" viewBox="0 0 91 89" fill="none" xmlns="http://www.w3.org/2000/svg">
<path d="M47.2618 83.4451L45.1261 82.7525C45.1261 82.7525 45.4105 72.1838 41.5004 71.4412C38.941 68.5264 41.8786 -52.9947 51.2345 71.0268C49.4594 71.9074 48.1011 73.4252 47.4438 75.2626C47.0915 77.9764 47.0305 80.7188 47.2618 83.4451Z" fill="url(#paint0_linear)"/>
<path d="M48.4177 73.2201C54.104 69.0336 58.4587 63.3548 60.9757 56.8437C63.4927 50.3326 64.0686 43.2566 62.6364 36.438C58.4561 18.4016 48.557 12.472 47.4906 10.2081C46.5705 8.79832 45.7852 7.3087 45.1445 5.75806L45.9323 56.0125C45.9323 56.0125 44.2999 71.3705 48.4177 73.2201Z" fill="url(#paint1_linear)"/>
<path d="M44.0408 73.895C44.0408 73.895 26.6342 62.3 27.6409 41.7883C27.7348 35.6046 29.1845 29.5126 31.8921 23.9238C34.5996 18.335 38.502 13.3796 43.3356 9.39228C43.9004 8.92294 44.3492 8.3345 44.6482 7.67119C44.9471 7.00788 45.0885 6.28693 45.0617 5.5625C46.1452 7.84312 45.9689 39.6133 46.0826 43.3291C46.5234 57.7833 45.2608 71.1666 44.0408 73.895Z" fill="url(#paint2_linear)"/>
<defs>
<linearGradient id="paint0_linear" x1="32.9055" y1="45.2093" x2="57.3372" y2="53.6864" gradientUnits="userSpaceOnUse">
<stop offset="0.231" stop-color="#999875"/>
<stop offset="0.563" stop-color="#9B9977"/>
<stop offset="0.683" stop-color="#A09F7E"/>
<stop offset="0.768" stop-color="#A9A889"/>
<stop offset="0.837" stop-color="#B7B69A"/>
<stop offset="0.896" stop-color="#C9C7B0"/>
<stop offset="0.948" stop-color="#DEDDCB"/>
<stop offset="0.994" stop-color="#F8F6EB"/>
<stop offset="1" stop-color="#FBF9EF"/>
</linearGradient>
<linearGradient id="paint1_linear" x1="41.9082" y1="5.39896" x2="52.2996" y2="71.7453" gradientUnits="userSpaceOnUse">
<stop stop-color="#48A547"/>
<stop offset="1" stop-color="#3F9143"/>
</linearGradient>
<linearGradient id="paint2_linear" x1="26.1436" y1="43.8187" x2="55.1325" y2="33.8921" gradientUnits="userSpaceOnUse">
<stop stop-color="#41A247"/>
<stop offset="0.352" stop-color="#4BA74B"/>
<stop offset="0.956" stop-color="#67B554"/>
<stop offset="1" stop-color="#69B655"/>
</linearGradient>
</defs>
</svg>
