<svg width="151" height="91" viewBox="0 0 151 91" fill="none" xmlns="http://www.w3.org/2000/svg">
<g clip-path="url(#clip0)">
<path d="M35.6967 23.7251H64.1245V25.9857H38.3025V42.9979H62.5849V45.2582H38.3025V63.9362H64.4206V66.1965H35.6967V23.7251ZM66.6715 23.7251H69.6918L83.0765 42.403L96.7573 23.7248L115.365 0L84.7939 44.3662L100.548 66.1965H97.4087L83.0765 46.329L68.6848 66.1965H65.6052L81.4774 44.3659L66.6712 23.7251H66.6715ZM101.673 25.9857V23.7248H134.069V25.9854H119.144V66.1962H116.538V25.9857H101.673V25.9857ZM0.132446 23.7248H3.38978L48.3065 90.9655L29.7449 66.1962L2.85665 26.9372L2.73831 66.1968H0.132446V23.7248ZM133.806 63.2535C133.274 63.2535 132.875 62.8412 132.875 62.3076C132.875 61.7746 133.274 61.3617 133.806 61.3617C134.345 61.3617 134.738 61.7743 134.738 62.3076C134.738 62.8409 134.345 63.2535 133.806 63.2535ZM136.367 60.765H137.761C137.78 61.5204 138.332 62.0284 139.143 62.0284C140.049 62.0284 140.563 61.4824 140.563 60.4602V53.9842H141.982V60.4664C141.982 62.3076 140.918 63.3681 139.156 63.3681C137.501 63.3681 136.367 62.3394 136.367 60.7647V60.765ZM143.839 60.6826H145.247C145.367 61.5522 146.216 62.1044 147.44 62.1044C148.58 62.1044 149.417 61.5139 149.417 60.7014C149.417 60.0032 148.885 59.5841 147.674 59.2984L146.495 59.0128C144.841 58.6252 144.087 57.8253 144.087 56.4795C144.087 54.848 145.418 53.7621 147.414 53.7621C149.271 53.7621 150.628 54.8477 150.71 56.3905H149.328C149.195 55.5462 148.46 55.0191 147.395 55.0191C146.273 55.0191 145.526 55.5589 145.526 56.3841C145.526 57.0379 146.007 57.4127 147.199 57.6919L148.206 57.9396C150.082 58.3778 150.856 59.1397 150.856 60.5173C150.856 62.2696 149.5 63.3681 147.332 63.3681C145.304 63.3681 143.941 62.3203 143.839 60.6823V60.6826Z" fill="#626262" stroke="#626262" stroke-width="3"/>
</g>
<defs>
<clipPath id="clip0">
<rect width="151" height="91" fill="white"/>
</clipPath>
</defs>
</svg>
