<svg width="151" height="91" viewBox="0 0 151 91" fill="none" xmlns="http://www.w3.org/2000/svg">
<g clip-path="url(#clip0)">
<path d="M74.6505 90.7346C74.1423 90.7346 73.6679 90.6007 73.2272 90.3663L68.72 87.7203C68.042 87.3517 68.381 87.2178 68.5845 87.1508C69.4994 86.8494 69.6689 86.7822 70.6177 86.2466C70.7195 86.1794 70.8552 86.213 70.9567 86.28L74.4136 88.3231C74.549 88.3901 74.7185 88.3901 74.82 88.3231L88.3421 80.5858C88.4776 80.5189 88.5456 80.3847 88.5456 80.2174V64.7764C88.5456 64.6086 88.4776 64.475 88.3421 64.4078L74.82 56.7041C74.6845 56.6369 74.515 56.6369 74.4136 56.7041L60.8914 64.4078C60.7559 64.4747 60.6879 64.6422 60.6879 64.7761V80.2172C60.6879 80.3513 60.7559 80.5186 60.8914 80.5858L64.5855 82.6959C66.585 83.7007 67.8388 82.5284 67.8388 81.3561V66.1159C67.8388 65.9151 68.0083 65.714 68.2455 65.714H69.9738C70.1773 65.714 70.3805 65.8815 70.3805 66.1159V81.3561C70.3805 84.0021 68.9232 85.543 66.3815 85.543C65.6021 85.543 64.9922 85.543 63.2636 84.7054L59.7053 82.6959C58.8242 82.1937 58.282 81.2555 58.282 80.2508V64.8098C58.282 63.805 58.8242 62.8669 59.7053 62.3646L73.2272 54.6273C74.0746 54.1584 75.227 54.1584 76.0741 54.6273L89.5959 62.3646C90.4771 62.8669 91.0196 63.805 91.0196 64.8098V80.2508C91.0196 81.2555 90.4771 82.1937 89.5959 82.6959L76.0741 90.4332C75.6334 90.6343 75.1252 90.7346 74.6508 90.7346H74.6505ZM78.819 80.1169C72.8885 80.1169 71.6684 77.4373 71.6684 75.1597C71.6684 74.9586 71.8378 74.7577 72.0751 74.7577H73.8374C74.0406 74.7577 74.2101 74.8916 74.2101 75.0928C74.4813 76.8678 75.2607 77.7387 78.853 77.7387C81.6996 77.7387 82.9201 77.1023 82.9201 75.595C82.9201 74.7241 82.5808 74.088 78.1413 73.6524C74.4473 73.2838 72.1428 72.4801 72.1428 69.5661C72.1428 66.8529 74.4476 65.2451 78.3108 65.2451C82.6485 65.2451 84.7838 66.719 85.055 69.9342C85.055 70.035 85.021 70.1353 84.9533 70.2358C84.8853 70.3028 84.7838 70.3697 84.6821 70.3697H82.9198C82.7503 70.3697 82.5808 70.2358 82.5471 70.0683C82.1404 68.2263 81.0897 67.6232 78.3108 67.6232C75.1929 67.6232 74.82 68.6952 74.82 69.4989C74.82 70.4703 75.2607 70.7717 79.4629 71.3076C83.6314 71.8437 85.5972 72.614 85.5972 75.4944C85.5632 78.4421 83.1233 80.1169 78.819 80.1169Z" fill="#539E43"/>
<path d="M32.6956 30.343C32.6956 29.7402 32.3567 29.1704 31.8145 28.869L17.4452 20.6964C17.2077 20.5622 16.9368 20.4953 16.6658 20.4617H16.5301C16.2591 20.4617 15.9879 20.5622 15.7507 20.6964L1.38139 28.869C0.838921 29.1704 0.500244 29.7399 0.500244 30.343L0.534258 52.3154C0.534258 52.6168 0.703743 52.9182 0.974685 53.0524C1.24592 53.2199 1.5846 53.2199 1.82211 53.0524L10.3623 48.2291C10.9045 47.9277 11.2435 47.3583 11.2435 46.7555V36.4725C11.2435 35.8697 11.5822 35.3002 12.1246 34.9988L15.7507 32.922C16.0219 32.7545 16.3269 32.6873 16.6318 32.6873C16.9368 32.6873 17.2417 32.7545 17.4792 32.922L21.1053 34.9988C21.6477 35.3002 21.9864 35.8694 21.9864 36.4725V46.7555C21.9864 47.3583 22.3254 47.9277 22.8676 48.2291L31.4078 53.0524C31.679 53.2199 32.0177 53.2199 32.2889 53.0524C32.5602 52.9182 32.7297 52.6168 32.7297 52.3154L32.6956 30.343Z" fill="#626262"/>
<path d="M101.765 0.100636C101.494 -0.0335454 101.155 -0.0335454 100.917 0.100636C100.646 0.268146 100.477 0.535929 100.477 0.83733V22.6092C100.477 22.8101 100.375 23.0109 100.172 23.1451C99.9686 23.2454 99.7651 23.2454 99.5619 23.1451L95.9696 21.1019C95.7062 20.9537 95.4084 20.8758 95.1053 20.8758C94.8022 20.8758 94.5044 20.9537 94.241 21.1019L79.8717 29.3082C79.3296 29.6096 78.9906 30.179 78.9906 30.7818V47.1607C78.9906 47.7635 79.3296 48.3332 79.8717 48.6346L94.241 56.8409C94.5044 56.9891 94.8022 57.067 95.1053 57.067C95.4084 57.067 95.7062 56.9891 95.9696 56.8409L110.339 48.6346C110.881 48.3332 111.22 47.7638 111.22 47.1607V6.33066C111.22 5.69424 110.881 5.12505 110.339 4.82336L101.765 0.100636H101.765ZM100.443 41.7682C100.443 41.9357 100.375 42.0696 100.24 42.1366L95.3257 44.95C95.257 44.9831 95.1817 45.0003 95.1053 45.0003C95.0289 45.0003 94.9536 44.9831 94.885 44.95L89.9711 42.1366C89.8353 42.0696 89.7676 41.9021 89.7676 41.7682V36.141C89.7676 35.9735 89.8353 35.8396 89.9711 35.7726L94.885 32.9589C94.9536 32.9258 95.0289 32.9086 95.1053 32.9086C95.1817 32.9086 95.257 32.9258 95.3257 32.9589L100.24 35.7726C100.375 35.8393 100.443 36.0071 100.443 36.141V41.7682Z" fill="#626262"/>
<path d="M149.58 36.0159C150.123 35.7145 150.428 35.145 150.428 34.5419V30.5562C150.428 29.9534 150.089 29.3839 149.58 29.0825L135.313 20.9099C135.049 20.7617 134.752 20.6838 134.449 20.6838C134.146 20.6838 133.848 20.7617 133.585 20.9099L119.215 29.1158C118.673 29.4172 118.334 29.9867 118.334 30.5898V46.9686C118.334 47.5714 118.673 48.1409 119.215 48.4423L133.483 56.481C134.025 56.7824 134.669 56.7824 135.177 56.481L143.819 51.7253C144.09 51.5911 144.26 51.2897 144.26 50.9883C144.26 50.6869 144.09 50.3855 143.819 50.2513L129.382 42.0451C129.111 41.8779 128.942 41.6098 128.942 41.3084V36.1837C128.942 35.8823 129.111 35.5809 129.382 35.4467L133.889 32.901C134.021 32.819 134.174 32.7754 134.33 32.7754C134.486 32.7754 134.639 32.819 134.771 32.901L139.278 35.4467C139.549 35.6142 139.719 35.882 139.719 36.1837V40.2031C139.719 40.5045 139.888 40.8059 140.159 40.9397C140.43 41.1073 140.769 41.1073 141.04 40.9397L149.58 36.0159Z" fill="#626262"/>
<path d="M134.23 35.2416C134.281 35.2088 134.339 35.1914 134.4 35.1914C134.46 35.1914 134.519 35.2088 134.569 35.2416L137.314 36.8158C137.416 36.8825 137.484 36.983 137.484 37.1172V40.2657C137.484 40.3996 137.416 40.5002 137.314 40.5671L134.569 42.1413C134.519 42.1741 134.46 42.1915 134.4 42.1915C134.339 42.1915 134.281 42.1741 134.23 42.1413L131.485 40.5671C131.383 40.5002 131.316 40.3996 131.316 40.2657V37.1172C131.316 36.983 131.383 36.8825 131.485 36.8158L134.23 35.2416Z" fill="#539E43"/>
<mask id="mask0" mask-type="alpha" maskUnits="userSpaceOnUse" x="39" y="20" width="33" height="37">
<path d="M56.7208 20.9765C56.4575 20.8284 56.1597 20.7505 55.8567 20.7505C55.5536 20.7505 55.2558 20.8284 54.9925 20.9765L40.725 29.1153C40.1825 29.4167 39.8776 29.9861 39.8776 30.5889V46.9011C39.8776 47.5039 40.2165 48.0734 40.725 48.3748L54.9925 56.5141C55.2558 56.6622 55.5536 56.7401 55.8567 56.7401C56.1597 56.7401 56.4575 56.6622 56.7208 56.5141L70.9886 48.3748C71.5308 48.0734 71.836 47.5039 71.836 46.9011V30.5892C71.836 29.9864 71.4968 29.4169 70.9886 29.1155L56.7208 20.9765Z" fill="white"/>
</mask>
<g mask="url(#mask0)">
<path d="M56.7208 20.9765C56.4575 20.8284 56.1597 20.7505 55.8567 20.7505C55.5536 20.7505 55.2558 20.8284 54.9925 20.9765L40.725 29.1153C40.1825 29.4167 39.8776 29.9861 39.8776 30.5889V46.9011C39.8776 47.5039 40.2165 48.0734 40.725 48.3748L54.9925 56.5141C55.2558 56.6622 55.5536 56.7401 55.8567 56.7401C56.1597 56.7401 56.4575 56.6622 56.7208 56.5141L70.9886 48.3748C71.5308 48.0734 71.836 47.5039 71.836 46.9011V30.5892C71.836 29.9864 71.4968 29.4169 70.9886 29.1155L56.7208 20.9765Z" fill="url(#paint0_linear)"/>
<path d="M71.0209 29.1236L56.6856 20.9846C56.5447 20.9143 56.3971 20.8582 56.2449 20.8171L40.181 48.0151C40.3141 48.1757 40.4748 48.3118 40.6558 48.4171L54.991 56.5564C55.3977 56.7908 55.8722 56.8578 56.3126 56.7236L71.3938 29.459C71.2921 29.3251 71.1563 29.2242 71.0209 29.1239V29.1236Z" fill="url(#paint1_linear)"/>
<path fill-rule="evenodd" clip-rule="evenodd" d="M71.0577 48.3806C71.4644 48.1462 71.7694 47.7442 71.9052 47.3089L56.1797 20.781C55.773 20.714 55.3323 20.7474 54.9599 20.9818L40.7261 29.0878L56.078 56.7544C56.3012 56.7182 56.5181 56.6506 56.7219 56.5535L71.0574 48.3809L71.0577 48.3806Z" fill="url(#paint2_linear)"/>
<path fill-rule="evenodd" clip-rule="evenodd" d="M71.0583 48.3827L56.7567 56.522C56.5548 56.6237 56.3372 56.6916 56.1128 56.7228L56.384 57.2253L72.2444 48.1485V47.9474L71.8377 47.2773C71.7699 47.7463 71.465 48.1482 71.0583 48.3827Z" fill="url(#paint3_linear)"/>
<path fill-rule="evenodd" clip-rule="evenodd" d="M71.0583 48.3827L56.7567 56.522C56.5548 56.6237 56.3372 56.6916 56.1128 56.7228L56.384 57.2253L72.2444 48.1485V47.9474L71.8377 47.2773C71.7699 47.7463 71.465 48.1482 71.0583 48.3827Z" fill="url(#paint4_linear)"/>
</g>
</g>
<defs>
<linearGradient id="paint0_linear" x1="61.6694" y1="27.044" x2="46.2905" y2="51.4938" gradientUnits="userSpaceOnUse">
<stop stop-color="#41873F"/>
<stop offset="0.3288" stop-color="#418B3D"/>
<stop offset="0.6352" stop-color="#419637"/>
<stop offset="0.9319" stop-color="#3FA92D"/>
<stop offset="1" stop-color="#3FAE2A"/>
</linearGradient>
<linearGradient id="paint1_linear" x1="53.689" y1="40.6641" x2="92.6445" y2="19.2499" gradientUnits="userSpaceOnUse">
<stop offset="0.1376" stop-color="#41873F"/>
<stop offset="0.4032" stop-color="#54A044"/>
<stop offset="0.7136" stop-color="#66B848"/>
<stop offset="0.9081" stop-color="#6CC04A"/>
</linearGradient>
<linearGradient id="paint2_linear" x1="39.3576" y1="38.7514" x2="72.3725" y2="38.7514" gradientUnits="userSpaceOnUse">
<stop offset="0.09192" stop-color="#6CC04A"/>
<stop offset="0.2864" stop-color="#66B848"/>
<stop offset="0.5968" stop-color="#54A044"/>
<stop offset="0.8624" stop-color="#41873F"/>
</linearGradient>
<linearGradient id="paint3_linear" x1="39.3584" y1="52.2787" x2="72.3729" y2="52.2787" gradientUnits="userSpaceOnUse">
<stop offset="0.09192" stop-color="#6CC04A"/>
<stop offset="0.2864" stop-color="#66B848"/>
<stop offset="0.5968" stop-color="#54A044"/>
<stop offset="0.8624" stop-color="#41873F"/>
</linearGradient>
<linearGradient id="paint4_linear" x1="77.1827" y1="26.2802" x2="69.006" y2="69.6312" gradientUnits="userSpaceOnUse">
<stop stop-color="#41873F"/>
<stop offset="0.3288" stop-color="#418B3D"/>
<stop offset="0.6352" stop-color="#419637"/>
<stop offset="0.9319" stop-color="#3FA92D"/>
<stop offset="1" stop-color="#3FAE2A"/>
</linearGradient>
<clipPath id="clip0">
<rect width="151" height="91" fill="white"/>
</clipPath>
</defs>
</svg>
