<svg width="518" height="196" viewBox="0 0 518 196" fill="none" xmlns="http://www.w3.org/2000/svg">
<g clip-path="url(#clip0)">
<path d="M381.234 160.896L396.198 122.866H439.406L418.901 65.1767L444.546 0L518 196.001H463.83L451.278 160.896H381.234Z" fill="white"/>
<path d="M335.02 196.001L413.654 0.000244141L361.523 0.000504584L307.732 126.661L269.482 0.000765025H229.411L188.34 126.661L159.377 68.9442L133.165 150.099L159.778 196.001H211.082L248.195 82.4143L283.581 196.001H335.02Z" fill="#706CF5"/>
<path d="M49.4849 128.717H81.5954C91.3222 128.717 99.9836 127.626 107.579 125.444L115.884 99.7331L139.093 27.874C137.324 25.057 135.305 22.3936 133.036 19.8841C121.119 6.62821 103.685 0.000488281 80.731 0.000488281H0V196.001H49.4849V128.717ZM91.988 45.0924C96.6426 49.8003 98.9696 56.1004 98.9696 63.9931C98.9696 71.9464 96.9228 78.2542 92.8295 82.9165C88.3421 88.097 80.0793 90.6871 68.0416 90.6871H49.4849V38.0301H68.178C79.397 38.0301 87.3337 40.3842 91.988 45.0924Z" fill="white"/>
</g>
<defs>
<clipPath id="clip0">
<rect width="518" height="196" fill="white"/>
</clipPath>
</defs>
</svg>
