<svg width="200" height="200" viewBox="0 0 200 200" fill="none" xmlns="http://www.w3.org/2000/svg">
<path d="M100 115.454C108.629 115.454 115.625 108.459 115.625 99.8293C115.625 91.1999 108.629 84.2043 100 84.2043C91.3706 84.2043 84.375 91.1999 84.375 99.8293C84.375 108.459 91.3706 115.454 100 115.454Z" fill="#00D8FF"/>
<path d="M100 135.658C81.2196 136.112 62.4862 133.581 44.5 128.158C36.1914 125.524 28.4421 121.375 21.6438 115.921C19.0496 114.057 16.8892 111.655 15.3109 108.878C13.7326 106.101 12.7737 103.015 12.5 99.8331C12.5 89.5018 23.85 79.3768 42.8625 72.7518C61.3296 66.8815 80.6245 64.0364 100 64.3268C119.117 64.0597 138.153 66.8534 156.387 72.6018C164.389 75.1528 171.876 79.1013 178.5 84.2643C181.05 86.0408 183.178 88.3563 184.733 91.0468C186.288 93.7373 187.233 96.7369 187.5 99.8331C187.5 110.571 174.812 121.452 154.375 128.214C136.737 133.46 118.399 135.971 100 135.658ZM100 71.8018C81.4632 71.554 63.0052 74.2587 45.3187 79.8143C27.8187 85.9206 19.975 94.2706 19.975 99.8143C19.975 105.614 28.4062 114.733 46.9188 121.064C64.1255 126.226 82.0413 128.629 100 128.183C117.603 128.498 135.15 126.116 152.031 121.121C171.25 114.752 180 105.621 180 99.8331C179.685 97.847 178.961 95.9479 177.874 94.2557C176.788 92.5635 175.362 91.1151 173.688 90.0018C167.761 85.4215 161.073 81.9221 153.931 79.6643C136.488 74.1878 118.281 71.5335 100 71.8018Z" fill="#00D8FF"/>
<path d="M64.4976 177.778C61.5819 177.844 58.7007 177.137 56.1476 175.728C47.1976 170.565 44.0976 155.678 47.8538 135.896C51.9954 116.966 59.1713 98.8294 69.1038 82.19C78.4209 65.4969 90.3487 50.402 104.435 37.4775C110.642 31.8194 117.803 27.3059 125.585 24.1462C128.4 22.8271 131.47 22.1433 134.579 22.1433C137.687 22.1433 140.758 22.8271 143.573 24.1462C152.879 29.5087 155.96 45.9337 151.616 67.015C147.347 84.9185 140.357 102.061 130.891 117.846C121.902 134.342 110.35 149.306 96.6663 162.178C90.2337 168.057 82.7684 172.696 74.6476 175.859C71.3964 177.065 67.9648 177.714 64.4976 177.778ZM75.5788 85.9025C66.1044 101.836 59.2267 119.176 55.2038 137.271C51.7476 155.49 55.0663 166.446 59.8913 169.234C64.8913 172.128 77.0288 169.384 91.7663 156.509C104.829 144.177 115.855 129.854 124.435 114.071C133.503 98.9807 140.208 82.5909 144.316 65.4712C148.404 45.6275 144.873 33.4775 139.86 30.59C137.981 29.8702 135.974 29.5479 133.964 29.6437C131.955 29.7394 129.987 30.2511 128.185 31.1462C121.258 34.0047 114.89 38.0627 109.373 43.1337C95.9143 55.5137 84.5206 69.9646 75.6226 85.94L75.5788 85.9025Z" fill="#00D8FF"/>
<path d="M135.475 177.862C127.007 177.862 116.25 172.737 105.05 163.106C90.7173 150.064 78.5878 134.79 69.1317 117.875C59.3238 101.464 52.2046 83.5905 48.0442 64.9308C46.2399 56.7214 45.9055 48.257 47.0567 39.9308C47.3228 36.8421 48.2633 33.8494 49.8119 31.1637C51.3604 28.478 53.4793 26.1648 56.0192 24.3871C65.3129 19.0058 81.0817 24.5371 97.1754 38.8246C110.554 51.4632 121.915 66.079 130.863 82.1621C140.665 98.1892 147.859 115.672 152.175 133.956C154.057 142.466 154.348 151.252 153.032 159.868C152.719 163.046 151.722 166.118 150.11 168.874C148.499 171.631 146.31 174.006 143.694 175.837C141.183 177.229 138.346 177.928 135.475 177.862ZM75.6004 114.112C84.6719 130.277 96.2585 144.896 109.925 157.418C123.982 169.512 135.132 172.112 139.925 169.293C144.925 166.387 148.613 154.525 144.813 135.331C140.65 117.874 133.75 101.186 124.369 85.8871C115.831 70.4941 104.986 56.4987 92.2129 44.3871C77.0629 30.9371 64.7754 27.9308 59.7692 30.8308C58.2088 32.0988 56.9283 33.6766 56.0086 35.4645C55.0888 37.2524 54.5498 39.2116 54.4254 41.2183C53.4317 48.6439 53.7554 56.1865 55.3817 63.4996C59.3836 81.3442 66.2113 98.4347 75.6067 114.125L75.6004 114.112Z" fill="#00D8FF"/>
</svg>
