<svg width="335" height="180" viewBox="0 0 335 180" fill="none" xmlns="http://www.w3.org/2000/svg">
<g clip-path="url(#clip0)">
<path d="M102.209 119.05C118.97 119.05 132.557 105.691 132.557 89.209C132.557 72.73 118.97 59.3701 102.208 59.3701C85.4487 59.3701 71.8617 72.7287 71.8617 89.2103C71.8617 105.691 85.4487 119.05 102.209 119.05ZM30.4796 178.729C47.2401 178.729 60.8271 165.371 60.8271 148.889C60.8271 132.41 47.2401 119.05 30.4783 119.05C13.7205 119.05 0.132202 132.409 0.132202 148.889C0.132202 165.37 13.7179 178.731 30.4796 178.731V178.729ZM304.523 178.729C321.284 178.729 334.871 165.371 334.871 148.889C334.871 132.41 321.285 119.05 304.523 119.05C287.763 119.05 274.176 132.409 274.176 148.889C274.176 165.37 287.763 178.731 304.525 178.731L304.523 178.729Z" fill="#626262"/>
<path d="M204.853 90.459C203.882 80.4896 203.388 72.1916 195.621 66.3596C185.786 58.9744 174.642 63.7663 160.918 58.8947C147.431 55.6869 137.428 43.9136 137.428 29.88C137.428 13.3779 151.259 0 168.32 0C180.958 0 191.823 7.33757 196.608 17.8496C203.932 31.5296 199.171 45.45 208.374 52.4623C219.27 60.7654 233.96 54.6853 250.352 62.5526C255.584 64.9134 260.041 68.6653 263.219 73.3847C266.463 78.2042 268.191 83.8575 268.185 89.6374C268.185 103.671 258.182 115.446 244.696 118.653C230.97 123.525 219.827 118.733 209.991 126.118C198.929 134.424 204.851 148.319 195.836 162.995C190.719 172.661 180.319 179.276 168.32 179.276C151.259 179.276 137.428 165.898 137.428 149.396C137.428 137.409 144.726 127.071 155.26 122.311C171.652 114.443 186.341 120.524 197.239 112.221C203.524 107.43 204.853 100.041 204.853 90.459Z" fill="#D0021B"/>
</g>
<defs>
<clipPath id="clip0">
<rect width="335" height="180" fill="white"/>
</clipPath>
</defs>
</svg>
