<svg width="95" height="91" viewBox="0 0 95 91" fill="none" xmlns="http://www.w3.org/2000/svg">
<path d="M65.7736 63.3021C69.2766 62.9373 71.9341 59.9 71.8132 56.2548C71.6927 52.6099 68.6725 49.6938 65.0487 49.6938H64.8073C61.0622 49.8154 58.1632 52.9743 58.2841 56.7407C58.405 58.5633 59.1295 60.1428 60.2167 61.2363C56.1097 69.3771 49.8283 75.3305 40.4061 80.312C34.0038 83.714 27.3601 84.9291 20.7164 84.0788C15.2805 83.3497 11.0526 80.9199 8.39463 76.9099C4.52937 70.9565 4.16709 64.5168 7.42868 58.0774C9.72396 53.4603 13.3475 50.0582 15.6427 48.3572C15.1596 46.7777 14.4347 44.1048 14.0724 42.161C-3.44329 54.9185 -1.63117 72.1716 3.68393 80.312C7.67008 86.3873 15.7636 90.1538 24.7026 90.1538C27.1184 90.1538 29.5342 89.9106 31.9503 89.3035C47.4125 86.2658 59.1299 77.0315 65.7736 63.3021ZM87.034 48.236C77.8533 37.4223 64.3241 31.4688 48.862 31.4688H46.9293C45.8421 29.2819 43.5469 27.8236 41.0102 27.8236H40.7684C37.024 27.9452 34.1251 31.1041 34.2456 34.8709C34.3665 38.5158 37.3863 41.4319 41.0102 41.4319H41.2516C43.9091 41.3103 46.2044 39.6092 47.1707 37.3007H49.3451C58.5259 37.3007 67.2231 39.9736 75.0752 45.1983C81.1149 49.2079 85.4637 54.4325 87.8794 60.7503C89.933 65.8534 89.8121 70.8349 87.6377 75.0877C84.2556 81.527 78.5782 85.0507 71.0887 85.0507C66.2567 85.0507 61.6666 83.5924 59.2504 82.499C57.9218 83.714 55.5057 85.6579 53.8144 86.8733C59.009 89.3031 64.3241 90.6397 69.3975 90.6397C80.994 90.6397 89.5707 84.2 92.8323 77.7606C96.3353 70.7133 96.0935 58.5633 87.034 48.236ZM25.6689 65.3671C25.7898 69.0123 28.8096 71.928 32.4335 71.928H32.6753C36.42 71.8068 39.3189 68.6476 39.1981 64.8811C39.0776 61.2359 36.0574 58.3202 32.4335 58.3202H32.1921C31.9503 58.3202 31.5877 58.3202 31.3467 58.4414C26.3938 50.1794 24.3403 41.1887 25.0652 31.4685C25.548 24.1784 27.9642 17.8602 32.1921 12.6356C35.6951 8.14003 42.4597 5.95304 47.0502 5.83183C59.8544 5.58867 65.2901 21.6267 65.6527 28.0664C67.2231 28.4308 69.8806 29.2815 71.6927 29.889C70.2429 10.2062 58.1632 0 46.5671 0C35.6951 0 25.6689 7.89761 21.6824 19.5616C16.1259 35.1137 19.7498 50.0582 26.5143 61.8438C25.9107 62.6942 25.548 64.0308 25.6689 65.3675V65.3671Z" fill="#764ABC"/>
</svg>
