<svg width="121" height="89" viewBox="0 0 121 89" fill="none" xmlns="http://www.w3.org/2000/svg">
<path d="M103.898 51.2346C99.7099 51.256 96.0693 52.2503 93.0213 53.7202C91.9024 51.5369 90.784 49.5919 90.587 48.1651C90.3673 46.501 90.1044 45.4849 90.3673 43.4963C90.6307 41.5077 91.8149 38.6759 91.7928 38.4599C91.7712 38.2439 91.5295 37.2278 89.1173 37.2065C86.7051 37.1847 84.6216 37.6603 84.3804 38.287C84.1391 38.9137 83.6787 40.3405 83.3716 41.8099C82.9549 43.9719 78.5472 51.688 76.0254 55.7301C75.2137 54.1526 74.512 52.769 74.3582 51.6667C74.139 50.0026 73.8756 48.9865 74.139 46.9979C74.4024 45.0093 75.5866 42.178 75.5645 41.9615C75.5424 41.7455 75.3011 40.7294 72.8889 40.7081C70.4763 40.6863 68.3928 41.1619 68.152 41.7886C67.9108 42.4158 67.6474 43.8852 67.1432 45.312C66.6386 46.7388 60.7833 59.6215 59.2482 62.9497C58.6279 64.2969 57.9771 65.6302 57.2965 66.9487C57.2965 66.9487 57.2743 67.0136 57.2085 67.1216C56.9947 67.535 56.7755 67.9458 56.551 68.3537V68.375C56.2218 68.9591 55.871 69.4991 55.6955 69.4991C55.5639 69.4991 55.3226 67.943 55.7393 65.8246C56.6164 61.3505 58.6998 54.3904 58.6782 54.1526C58.6782 54.0229 59.0728 52.8125 57.3186 52.1854C55.6076 51.5587 54.9938 52.5961 54.8401 52.5961C54.6867 52.5961 54.5767 52.9637 54.5767 52.9637C54.5767 52.9637 56.4852 45.1391 50.9365 45.1391C47.4718 45.1391 42.6907 48.8785 40.3222 52.2503C37.6298 53.6944 34.9396 55.1427 32.2518 56.595C30.9585 57.3084 29.6204 58.0218 28.3704 58.6916C28.2824 58.6054 28.1949 58.497 28.107 58.4107C21.3962 51.3427 8.98393 46.3494 9.5102 36.8607C9.70773 33.4022 10.9136 24.3237 33.3485 13.3002C51.8136 4.32978 66.5074 6.81529 69.0513 12.3273C72.6914 20.1954 61.1783 34.8072 42.0986 36.9251C34.8178 37.7252 31.0017 34.9583 30.0371 33.9209C29.0283 32.8399 28.8745 32.775 28.5016 32.9915C27.8878 33.316 28.2824 34.2885 28.5016 34.8503C29.0721 36.3197 31.4184 38.9137 35.3878 40.1894C38.8967 41.313 47.4276 41.9402 57.7569 38.0061C69.3141 33.5964 78.3496 21.3408 75.6962 11.0739C73.0423 0.655287 55.498 -2.78141 38.8967 3.03279C29.0283 6.49174 18.3261 11.9384 10.6286 19.0282C1.48351 27.4577 0.035912 34.7854 0.628026 37.855C2.75568 48.7487 17.9973 55.8385 24.0939 61.0909C23.7868 61.2638 23.5013 61.4154 23.2605 61.5452C20.212 63.0364 8.58887 69.0235 5.69415 75.3569C2.40484 82.533 6.22089 87.6778 8.74266 88.369C16.5718 90.5091 24.6202 86.6618 28.9404 80.3066C33.2606 73.9519 32.7343 65.6948 30.7388 61.9123C30.7167 61.8692 30.6951 61.8256 30.6509 61.7825C31.4405 61.3287 32.2518 60.8531 33.0414 60.3993C34.4927 59.5537 35.9625 58.7392 37.4496 57.9565C36.7037 59.9668 36.1553 62.3661 35.8924 65.8246C35.5632 69.8885 37.2516 75.1622 39.4667 77.237C40.4539 78.1456 41.616 78.1669 42.3619 78.1669C44.9495 78.1669 46.1121 76.0485 47.4059 73.5412C48.9848 70.4721 50.4103 66.9056 50.4103 66.9056C50.4103 66.9056 48.6339 76.5459 53.4588 76.5459C55.213 76.5459 56.9893 74.2977 57.779 73.1523V73.1736C57.779 73.1736 57.8227 73.1087 57.9107 72.9576C58.0861 72.6767 58.1957 72.5033 58.1957 72.5033V72.4607C58.8974 71.2499 60.4767 68.5048 62.823 63.944C65.8494 58.0649 68.7662 50.7159 68.7662 50.7159C68.7662 50.7159 69.0296 52.5098 69.9284 55.4927C70.4551 57.2435 71.5509 59.1672 72.4285 61.026C71.7268 61.999 71.288 62.539 71.288 62.539L71.3101 62.5608C70.7396 63.2955 70.1259 64.0951 69.4458 64.8739C67.0553 67.6834 64.2048 70.9046 63.8097 71.8335C63.3488 72.9358 63.4589 73.7359 64.3364 74.3844C64.9723 74.86 66.1123 74.9244 67.2749 74.86C69.4242 74.7084 70.9372 74.1897 71.6826 73.8657C72.8452 73.455 74.2048 72.8278 75.4766 71.8984C77.8234 70.1907 79.2484 67.7483 79.1172 64.5281C79.0513 62.7555 78.4592 60.9829 77.7354 59.3184C77.9551 59.0161 78.1521 58.7134 78.3717 58.4107C82.0778 53.0717 84.9508 47.2139 84.9508 47.2139C84.9508 47.2139 85.2142 49.0078 86.113 51.9911C86.5518 53.5041 87.451 55.1469 88.2402 56.7462C84.7533 59.5348 82.604 62.7768 81.8365 64.8952C80.4552 68.8293 81.5294 70.6014 83.5691 71.0121C84.4899 71.2068 85.8059 70.7743 86.7709 70.3636C87.9989 69.9747 89.4465 69.3049 90.8282 68.3101C93.1751 66.6029 95.4335 64.2249 95.3018 61.0047C95.2359 59.5348 94.8413 58.0863 94.293 56.6813C97.2535 55.4714 101.07 54.8011 105.938 55.3629C116.377 56.5733 118.438 62.9928 118.043 65.6953C117.649 68.3968 115.456 69.8667 114.732 70.3205C114.008 70.7748 113.767 70.9259 113.833 71.2499C113.921 71.7255 114.272 71.7042 114.886 71.6175C115.741 71.4664 120.369 69.4342 120.566 64.4627C120.895 58.108 114.754 51.1698 103.898 51.2346ZM23.3701 77.994C19.9049 81.7116 15.0805 83.1166 12.997 81.9281C10.7603 80.6524 11.6374 75.1622 15.8918 71.2286C18.4794 68.8293 21.8129 66.6024 24.028 65.241C24.5322 64.9383 25.2781 64.5063 26.1773 63.9658C26.3306 63.8791 26.4186 63.836 26.4186 63.836L26.9449 63.5115C28.5016 69.1315 27.0107 74.0817 23.3701 77.994ZM48.5902 61.0909C47.3838 63.9876 44.8621 71.4015 43.327 70.9908C42.0111 70.645 41.1993 65.025 43.0636 59.4699C44.0066 56.6813 46.0021 53.3526 47.1647 52.056C49.0506 49.9808 51.1341 49.2887 51.6382 50.1323C52.2745 51.2346 49.3356 59.2752 48.5902 61.0909ZM69.4021 70.9041C68.8975 71.1637 68.4154 71.3366 68.1958 71.2068C68.0424 71.1201 68.4154 70.7743 68.4154 70.7743C68.4154 70.7743 71.0251 68.0079 72.0556 66.754C72.6481 66.0193 73.3494 65.1548 74.0953 64.1818V64.4627C74.0953 67.7701 70.8492 69.9965 69.4016 70.9041H69.4021ZM85.455 67.2945C85.0821 67.0349 85.1479 66.1704 86.398 63.4684C86.8805 62.4092 88.0205 60.6371 89.9728 58.9294C90.1919 59.621 90.3457 60.2913 90.3236 60.918C90.3015 65.0899 87.2756 66.646 85.455 67.2945Z" fill="#CD6799"/>
</svg>
