<svg width="89" height="89" viewBox="0 0 89 89" fill="none" xmlns="http://www.w3.org/2000/svg">
<path d="M50.2008 82.3222C50.3176 82.058 50.6124 81.8744 50.8266 81.6519C54.0945 78.2254 57.3903 74.8295 60.6138 71.3613C61.6225 70.4297 62.4019 69.2773 62.8912 67.9944C63.3805 66.7114 63.5662 65.3327 63.434 63.966C63.3328 63.3807 63.2 62.8014 63.0363 62.2305C62.1574 63.0648 61.3397 63.8241 60.5164 64.589C59.2371 65.7793 57.9633 66.9753 56.6728 68.1517C55.9118 68.9276 54.9334 69.4544 53.8667 69.6625C52.8001 69.8705 51.6954 69.7501 50.6986 69.3171C49.6896 68.9464 48.8117 68.2875 48.1738 67.4223C47.536 66.557 47.1664 65.5234 47.1108 64.4499C47.0809 64.3118 47.0409 64.1761 46.9912 64.0438C46.0094 64.8782 45.0694 65.6458 44.1377 66.4357L24.7718 82.8451C24.6383 82.9591 24.4937 83.101 24.3685 83.2122H50.1869L50.1479 83.1872C50.0089 83.0898 50.0812 82.5781 50.2008 82.3222Z" fill="#FFCEBF"/>
<path d="M23.1856 82.3177C23.4152 82.0187 23.6924 81.7593 24.006 81.5501L50.8062 58.8134C52.6344 57.2614 54.4542 55.7011 56.2658 54.1325C56.4896 53.9764 56.665 53.7605 56.7719 53.5095C57.2052 51.6213 57.2667 49.6668 56.9527 47.7551C56.6746 47.9498 56.5244 48.0332 56.3965 48.1695C54.2021 50.1331 52.0188 52.1133 49.8132 54.0658C49.0826 54.8011 48.1376 55.2858 47.1142 55.4503C46.0907 55.6147 45.0414 55.4503 44.1172 54.9808C43.1744 54.5357 42.3853 53.8201 41.8504 52.9251C41.3155 52.0302 41.059 50.9963 41.1135 49.9551V49.0539C40.7102 49.3488 40.4154 49.5462 40.1401 49.7687C29.4137 58.3572 18.6892 66.9392 7.96656 75.5148C7.48262 75.9014 6.90412 76.7635 6.27 75.9264C5.63587 75.0892 6.60097 74.7444 7.08769 74.355C18.5186 65.1824 29.9551 56.0182 41.3972 46.8623C43.2606 45.3688 43.383 44.743 42.1704 42.3706L41.4472 43.0492C39.4642 44.8932 37.4589 46.7121 35.5065 48.5867C34.7056 49.3592 33.7025 49.8895 32.6131 50.1162C31.5237 50.3429 30.3924 50.2569 29.3498 49.8681C28.3072 49.4793 27.3959 48.8035 26.721 47.9187C26.0461 47.034 25.6352 45.9765 25.5357 44.8682C25.1658 45.1463 24.846 45.3493 24.5428 45.5857L7.57719 58.7355C7.28458 59.0225 6.95088 59.2643 6.58706 59.453C6.31248 59.536 6.01762 59.5213 5.75269 59.4113V83.2216H23.1522C23.0875 83.0786 23.0568 82.9226 23.0626 82.7657C23.0684 82.6089 23.1105 82.4555 23.1856 82.3177Z" fill="#FFCEBF"/>
<path d="M70.1901 6.74766C69.7173 8.29682 69.2584 9.84875 68.844 11.4146C68.4612 12.5211 68.5058 13.7308 68.9689 14.8062C69.432 15.8816 70.2802 16.7452 71.3471 17.2274C74.6107 18.9429 78.2883 19.7135 81.966 19.4524V7.01188C81.9251 6.73912 81.9402 6.4609 82.0105 6.19419C82.0884 6.04332 82.1866 5.90388 82.3025 5.77979H70.179C70.3654 5.99672 70.3014 6.37775 70.1901 6.74766Z" fill="#FF6196"/>
<path d="M45.8414 33.4551C45.7837 34.8436 45.298 36.1804 44.4507 37.2821C41.422 41.1918 37.9438 44.7317 34.0878 47.8286C33.466 48.4042 32.6778 48.768 31.8364 48.868C30.995 48.9679 30.1435 48.7988 29.4042 48.3848C28.6683 48.0704 28.0478 47.5359 27.628 46.8546C27.2081 46.1733 27.0096 45.3788 27.0596 44.5801C27.1486 43.5992 27.5559 42.6742 28.2194 41.9462C32.5312 37.8347 37.2029 34.118 42.1784 30.8407C42.5043 30.5852 42.9023 30.4386 43.316 30.4216C43.7298 30.4046 44.1384 30.5181 44.4841 30.7461C44.9385 31.0283 45.3058 31.4307 45.5454 31.9089C45.785 32.3871 45.8874 32.9222 45.8414 33.4551Z" fill="#FF87AF"/>
<path d="M42.5066 50.3175C42.442 49.7027 42.521 49.0813 42.7372 48.5022C42.9534 47.9231 43.301 47.402 43.7526 46.98C47.9745 43.086 52.5041 39.5395 57.2973 36.3751C57.4419 36.2833 57.5754 36.1915 57.7339 36.097C58.1526 35.7947 58.6599 35.6402 59.176 35.6579C59.6921 35.6755 60.1876 35.8642 60.5847 36.1943C60.9689 36.5198 61.2408 36.958 61.3616 37.4469C61.4824 37.9357 61.4461 38.4502 61.2578 38.9171C60.6514 40.9369 59.5322 42.7651 58.0093 44.2238C54.9163 47.2708 51.7636 50.2566 48.553 53.1794C48.0695 53.6766 47.4344 53.9989 46.7476 54.0956C46.0608 54.1923 45.3614 54.0578 44.7594 53.7134C44.1269 53.3847 43.5882 52.9006 43.1942 52.3066C42.8001 51.7125 42.5635 51.0281 42.5066 50.3175Z" fill="#FF87AF"/>
<path d="M62.5763 52.1552C61.7976 52.9896 60.9966 53.785 60.2484 54.6389C60.0235 54.9689 59.8369 55.3235 59.6922 55.6957C60.1038 55.8181 60.585 56.1407 60.9187 56.0267C62.6181 55.4566 64.2757 54.7724 66.1419 54.052C65.7358 54.9865 65.4299 55.8487 64.9988 56.6386C63.2228 59.6232 60.9988 62.3173 58.4045 64.6263C57.4181 65.5775 56.3936 66.487 55.3312 67.3547C54.7686 67.8217 54.092 68.1307 53.3707 68.2504C52.6494 68.37 51.9093 68.2959 51.2261 68.0356C50.5429 67.7753 49.941 67.3382 49.4821 66.769C49.0233 66.1998 48.7238 65.5189 48.6145 64.796C48.5699 64.3941 48.6054 63.9873 48.7191 63.5991C48.8327 63.211 49.0221 62.8493 49.2764 62.5348C53.0612 58.4249 57.3866 54.8479 62.1341 51.9021C62.1918 51.8797 62.253 51.8675 62.3149 51.866L62.5763 52.1552Z" fill="#FF87AF"/>
<path d="M68.9608 41.0843L73.7195 19.9468L77.057 20.7283L75.3354 25.9598C73.7279 30.827 72.1008 35.6942 70.5322 40.567C70.2263 41.4681 69.8258 41.635 68.9608 41.0843Z" fill="#FF6196"/>
<path d="M63.5831 53.5111C64.0865 51.5892 64.5872 49.812 65.0099 48.0153C65.4219 46.273 66.2056 44.6402 67.3072 43.2288C67.9831 42.3416 68.7423 42.6948 69.5183 42.8867C70.2359 43.0619 70.4166 43.5876 70.4472 44.2773C70.5604 46.1847 69.9795 48.0687 68.8119 49.5812C67.4218 51.3045 65.625 52.655 63.5831 53.5111Z" fill="#FF6196"/>
<path d="M83.4158 8.0509C83.4573 7.43147 83.4415 6.80953 83.3685 6.19302C83.3111 6.02081 83.1975 5.8729 83.0459 5.77305C82.9224 5.67266 82.7779 5.60137 82.6231 5.56446C82.5341 5.54777 82.409 5.63955 82.2894 5.77027C82.1735 5.89437 82.0752 6.03381 81.9973 6.18468C81.9271 6.45139 81.912 6.72961 81.9528 7.00236V19.4401C78.2751 19.7012 74.5976 18.9306 71.334 17.2151C70.2671 16.7329 69.4188 15.8693 68.9557 14.7939C68.4927 13.7185 68.4481 12.5088 68.8309 11.4023C69.2453 9.83646 69.7042 8.28452 70.177 6.73536C70.2883 6.36546 70.3522 5.98443 70.177 5.76749C70.0796 5.66188 69.945 5.59809 69.8016 5.58949C69.6178 5.59147 69.4399 5.65404 69.2954 5.76749C69.0874 5.8919 68.9217 6.07603 68.8198 6.29593C68.2635 7.96468 67.774 9.65011 67.3485 11.3522C67.1878 12.023 67.1446 12.7165 67.2206 13.402C67.3282 14.6424 67.7895 15.8258 68.5497 16.8118C69.3099 17.7978 70.3371 18.5449 71.5092 18.9645C72.0349 19.1842 72.3436 19.4012 72.1962 20.0937C71.9932 20.9726 71.7957 21.8515 71.5955 22.7331C70.2327 28.7072 68.8773 34.6841 67.5293 40.6638C67.4913 40.9304 67.374 41.1795 67.1927 41.3786C66.3043 42.0848 65.5578 42.9531 64.9928 43.9374C64.2728 45.2363 63.7746 46.6463 63.5187 48.1092C63.4696 48.5759 63.301 49.022 63.0291 49.4044C62.7573 49.7869 62.3914 50.0928 61.9668 50.2925C60.807 50.8794 59.7418 51.6386 58.4541 52.4285C58.5399 50.88 58.5232 49.3274 58.404 47.7811C58.306 47.3054 58.3268 46.8129 58.4646 46.3471C58.6024 45.8814 58.8528 45.4569 59.1939 45.111C60.8902 43.4306 62.0993 41.3218 62.6927 39.009C62.8699 38.4729 62.9185 37.9025 62.8346 37.3442C62.7506 36.7858 62.5364 36.255 62.2093 35.7947C61.8823 35.3344 61.4515 34.9575 60.9518 34.6945C60.4521 34.4316 59.8975 34.2899 59.3329 34.2809C58.4188 34.2707 57.5213 34.5257 56.7492 35.0151C54.0953 36.8274 51.4875 38.7062 48.9283 40.6499C47.4069 41.7958 45.9746 43.064 44.5005 44.2655C44.437 44.1973 44.3819 44.1217 44.3364 44.0403C44.3082 43.8355 44.2531 43.6354 44.1723 43.4451C42.9402 41.5427 43.7941 40.1604 45.1319 38.7392C46.5256 37.2783 47.2957 35.332 47.279 33.313C47.3222 32.2843 47 31.2734 46.3695 30.4594C46.0336 30.0462 45.6197 29.7032 45.1513 29.4498C44.486 29.0857 43.7253 28.9337 42.9712 29.0143C42.2171 29.0948 41.5056 29.404 40.9322 29.9004L40.1562 30.4566C38.3846 31.7249 36.5907 32.9598 34.8857 34.317C32.3968 36.3042 29.9614 38.3575 27.5822 40.4747C26.4697 41.4565 25.6576 42.797 24.5033 43.7093C18.4847 48.4625 12.4021 53.1294 6.34177 57.8269C6.13339 57.9512 5.94178 58.1017 5.77162 58.2747C5.7541 58.3 5.73919 58.327 5.72712 58.3554C5.59918 58.653 5.49071 59.1452 5.6409 59.326C5.67771 59.3653 5.72221 59.3965 5.77162 59.4178C6.03655 59.5278 6.33141 59.5425 6.60599 59.4595C6.96981 59.2708 7.30351 59.0289 7.59612 58.742L24.5617 45.5922C24.8649 45.3558 25.1847 45.1416 25.5547 44.8746C25.6541 45.9829 26.065 47.0405 26.7399 47.9252C27.4148 48.8099 28.3262 49.4857 29.3688 49.8746C30.4114 50.2634 31.5427 50.3494 32.6321 50.1227C33.7215 49.8959 34.7245 49.3657 35.5254 48.5932C37.4723 46.7186 39.4832 44.8997 41.4662 43.0557L42.1893 42.3771C43.4019 44.7495 43.2796 45.3753 41.4161 46.8688C29.9648 56.0321 18.5218 65.1972 7.08715 74.3642C6.60043 74.7536 5.63812 75.1068 6.26946 75.9356C6.90081 76.7645 7.48209 75.9106 7.96602 75.524C18.6942 66.9559 29.415 58.3767 40.1284 49.7863C40.4065 49.5638 40.6986 49.3664 41.1018 49.0715V49.9727C41.0473 51.0139 41.3038 52.0478 41.8387 52.9427C42.3736 53.8377 43.1627 54.5533 44.1056 54.9984C45.0298 55.4679 46.079 55.6323 47.1025 55.4678C48.126 55.3034 49.071 54.8187 49.8016 54.0834C52.0071 52.1365 54.1904 50.1507 56.3848 48.1871C56.5239 48.062 56.6852 47.9674 56.9411 47.7727C57.255 49.6844 57.1936 51.6389 56.7603 53.5271C56.6533 53.7781 56.4779 53.994 56.2541 54.1501C54.4407 55.7169 52.6208 57.2772 50.7945 58.831L24.0055 81.5704C23.6919 81.7797 23.4147 82.039 23.185 82.3381C23.1117 82.4745 23.0706 82.6259 23.0648 82.7806C23.0591 82.9353 23.0888 83.0894 23.1516 83.2309C23.2773 83.325 23.4226 83.3897 23.5767 83.42C23.7307 83.4503 23.8897 83.4456 24.0417 83.4061C24.1616 83.3712 24.2719 83.3094 24.3643 83.2253C24.5033 83.114 24.6424 82.9722 24.7676 82.8582L44.1334 66.4488C45.0651 65.6589 46.0052 64.8802 46.987 64.0569C47.0367 64.1892 47.0767 64.3249 47.1066 64.463C47.1621 65.5365 47.5318 66.5701 48.1696 67.4353C48.8074 68.3006 49.6854 68.9595 50.6944 69.3302C51.6911 69.7632 52.7958 69.8836 53.8625 69.6755C54.9291 69.4675 55.9075 68.9407 56.6685 68.1648C57.959 66.9884 59.2328 65.7924 60.5122 64.602C61.3466 63.8372 62.1531 63.0696 63.032 62.2435C63.1957 62.8145 63.3285 63.3938 63.4297 63.979C63.5576 65.3412 63.3696 66.7146 62.8805 67.9924C62.3914 69.2701 61.6143 70.4179 60.6095 71.3466C57.3861 74.8176 54.0903 78.2135 50.8223 81.6372C50.6082 81.8597 50.3133 82.0433 50.1965 82.3075C50.0797 82.5717 50.0046 83.089 50.1437 83.2003L50.1826 83.2253C50.4742 83.3671 50.8022 83.4166 51.1227 83.3671C51.2125 83.3487 51.2925 83.2983 51.348 83.2253C51.4258 83.1446 51.5009 83.0445 51.576 82.9694C54.2238 80.2327 56.8854 77.5098 59.5137 74.7536C60.5746 73.6787 61.572 72.543 62.5008 71.3521C63.7119 70.0114 64.515 68.3526 64.8155 66.571C65.1161 64.7894 64.9016 62.959 64.1973 61.2951C64.1216 60.9241 64.1956 60.5383 64.4032 60.2216C64.5839 59.9101 64.7842 59.6069 64.99 59.3065C65.6485 58.4515 66.197 57.5171 66.6226 56.5253C67.445 54.0911 68.7073 51.8286 70.3467 49.8503C71.1004 48.8947 71.6189 47.7754 71.8605 46.5826C72.102 45.3898 72.0598 44.1569 71.7373 42.9834C71.6234 42.5372 71.6234 42.0695 71.7373 41.6234C73.1446 37.2651 74.5937 32.9208 76.0288 28.5737L77.9478 22.7498L78.5402 20.9503C79.8029 20.9503 80.9933 20.9253 82.1781 20.9503C83.1627 20.9781 83.4631 20.5165 83.4519 19.5597C83.3935 15.7216 83.4158 11.8862 83.4158 8.0509ZM34.0847 47.8395C33.4629 48.4151 32.6748 48.7789 31.8333 48.8788C30.9919 48.9788 30.1405 48.8096 29.4011 48.3957C28.6652 48.0813 28.0447 47.5467 27.6249 46.8655C27.2051 46.1842 27.0065 45.3896 27.0565 44.591C27.1456 43.61 27.5529 42.6851 28.2163 41.9571C32.5282 37.8456 37.1999 34.1289 42.1754 30.8516C42.447 30.6596 42.7559 30.5269 43.0821 30.4622C43.3009 30.4218 43.5252 30.4218 43.744 30.4622C44.0061 30.5132 44.2561 30.6133 44.4811 30.757C44.9359 31.0394 45.3035 31.4423 45.5431 31.921C45.7827 32.3997 45.8849 32.9354 45.8383 33.4687C45.7807 34.8573 45.2949 36.1941 44.4477 37.2957C41.4188 41.2045 37.9406 44.7434 34.0847 47.8395ZM48.5472 53.2045C48.0637 53.7017 47.4286 54.024 46.7418 54.1207C46.055 54.2174 45.3556 54.0829 44.7536 53.7385C44.1199 53.409 43.5806 52.9236 43.1864 52.328C42.7923 51.7324 42.5563 51.0463 42.5008 50.3342C42.4362 49.7195 42.5152 49.0981 42.7314 48.519C42.9476 47.9399 43.2952 47.4188 43.7468 46.9967C47.9687 43.1027 52.4983 39.5562 57.2915 36.3918C57.4361 36.3 57.5696 36.2083 57.7282 36.1137C58.1468 35.8115 58.6541 35.657 59.1702 35.6746C59.6863 35.6922 60.1819 35.8809 60.5789 36.211C60.9631 36.5365 61.235 36.9748 61.3558 37.4636C61.4767 37.9524 61.4403 38.4669 61.252 38.9339C60.6456 40.9536 59.5264 42.7819 58.0035 44.2405C54.9358 47.3055 51.7457 50.2564 48.5528 53.1934L48.5472 53.2045ZM64.9872 56.656C63.2137 59.6359 60.9935 62.3261 58.404 64.6326C57.4176 65.5838 56.3932 66.4933 55.3307 67.361C54.7681 67.828 54.0915 68.137 53.3702 68.2567C52.649 68.3763 51.9088 68.3022 51.2256 68.0419C50.5424 67.7816 49.9405 67.3445 49.4817 66.7753C49.0228 66.2061 48.7234 65.5252 48.614 64.8023C48.5694 64.4004 48.6049 63.9936 48.7186 63.6054C48.8322 63.2173 49.0216 62.8556 49.2759 62.5411C53.0607 58.4312 57.3862 54.8542 62.1337 51.9084C62.1914 51.886 62.2525 51.8738 62.3144 51.8723L62.5926 52.1504C61.8138 52.9848 61.0128 53.7802 60.2647 54.634C60.0397 54.9641 59.8531 55.3186 59.7084 55.6909C60.12 55.8133 60.6012 56.1359 60.9349 56.0219C62.2783 55.5713 63.5994 55.0485 65.015 54.4922L66.1581 54.0472C65.7298 54.9928 65.4239 55.855 64.9928 56.6449L64.9872 56.656ZM68.8059 49.6055C67.7684 50.9263 66.4681 52.0173 64.9872 52.8095C64.5292 53.0654 64.0592 53.3046 63.5771 53.5271C64.0722 51.6331 64.5672 49.8781 64.9872 48.1037L65.0039 48.0314C65.4159 46.289 66.1996 44.6562 67.3012 43.2448C67.9771 42.3576 68.7363 42.7108 69.5123 42.9027C70.2299 43.078 70.4107 43.6036 70.4412 44.2934C70.5553 46.1991 69.9764 48.0819 68.8114 49.5944L68.8059 49.6055ZM75.314 25.9649C73.7064 30.8321 72.0794 35.6993 70.5108 40.572C70.216 41.4871 69.8155 41.654 68.9505 41.1033L73.0751 22.7665L73.7092 19.9519L77.0467 20.7334L76.3764 22.7665L75.314 25.9649Z" fill="black"/>
</svg>
