<svg width="157" height="91" viewBox="0 0 157 91" fill="none" xmlns="http://www.w3.org/2000/svg">
<path d="M78.5013 0C57.6642 0 44.6405 10.085 39.4314 30.2545C47.2453 20.1695 56.3615 16.3877 66.7803 18.9091C72.7244 20.3474 76.9733 24.5221 81.6763 29.1425C89.3377 36.67 98.2041 45.3818 117.571 45.3818C138.408 45.3818 151.432 35.2968 156.641 15.1273C148.827 25.2123 139.711 28.9941 129.292 26.4727C123.348 25.0345 119.099 20.8597 114.396 16.2394C106.735 8.71177 97.8684 0 78.5013 0ZM39.4314 45.3818C18.5943 45.3818 5.57057 55.4669 0.36145 75.6364C8.17543 65.5513 17.2915 61.7695 27.7104 64.2909C33.6545 65.7292 37.9034 69.9039 42.6064 74.5243C50.2678 82.0519 59.1342 90.7636 78.5013 90.7636C99.3384 90.7636 112.362 80.6786 117.571 60.5091C109.757 70.5941 100.641 74.376 90.2223 71.8545C84.2781 70.4163 80.0293 66.2415 75.3262 61.6212C67.6649 54.0936 58.7984 45.3818 39.4314 45.3818Z" fill="url(#paint0_linear)"/>
<defs>
<linearGradient id="paint0_linear" x1="-3.98" y1="29.0444" x2="128.764" y2="108.116" gradientUnits="userSpaceOnUse">
<stop stop-color="#2298BD"/>
<stop offset="1" stop-color="#0ED7B5"/>
</linearGradient>
</defs>
</svg>
