<svg width="89" height="89" viewBox="0 0 89 89" fill="none" xmlns="http://www.w3.org/2000/svg">
<path d="M0 44.5V89H89V0H0V44.5Z" fill="#007ACC"/>
<path d="M19.6816 44.7873L19.6534 48.4318H31.2373V81.3479H39.4316V48.4318H51.0155V44.8579C51.0155 42.8797 50.9731 41.227 50.9168 41.1846C50.8744 41.1282 43.8249 41.0997 35.2782 41.114L19.7244 41.1564L19.682 44.787L19.6816 44.7873Z" fill="white"/>
<path d="M71.8119 41.0638C74.072 41.6291 75.7957 42.6317 77.3779 44.2706C78.1973 45.1466 79.412 46.7431 79.5111 47.1245C79.5389 47.2375 75.6684 49.8369 73.3235 51.2918C73.2387 51.3485 72.8994 50.981 72.518 50.4157C71.3738 48.7491 70.173 48.0284 68.3364 47.9015C65.6386 47.7176 63.9006 49.1304 63.9149 51.4893C63.9149 52.1818 64.0136 52.5914 64.2963 53.1566C64.8897 54.3856 65.9914 55.1202 69.4527 56.6176C75.8238 59.3585 78.5502 61.1666 80.2457 63.7376C82.1387 66.6057 82.5625 71.1826 81.2768 74.5872C79.8643 78.2884 76.361 80.8033 71.4302 81.6366C69.9046 81.905 66.2883 81.8626 64.6495 81.5661C61.0756 80.9302 57.6849 79.1645 55.5941 76.8477C54.7747 75.9434 53.1782 73.5842 53.2773 73.4146C53.3197 73.3583 53.6868 73.1323 54.0964 72.892C54.492 72.6661 55.9897 71.8039 57.4022 70.9848L59.9592 69.5014L60.496 70.2926C61.2449 71.4368 62.8834 73.005 63.8725 73.5276C66.7118 75.0253 70.6111 74.8132 72.5322 73.0895C73.3517 72.341 73.6906 71.564 73.6906 70.4195C73.6906 69.3884 73.5634 68.9364 73.0266 68.1598C72.3348 67.1707 70.9219 66.337 66.9096 64.5998C62.3184 62.6216 60.3406 61.3926 58.5325 59.443C57.4871 58.3131 56.498 56.5046 56.0884 54.993C55.7495 53.7358 55.6643 50.5854 55.933 49.314C56.8797 44.8779 60.2276 41.7845 65.059 40.866C66.627 40.5694 70.2718 40.6824 71.8119 41.0641V41.0638Z" fill="white"/>
</svg>
